<svg xmlns="http://www.w3.org/2000/svg" viewBox="0 0 100 100">
  <g fill="#C97A2B">
    <rect x="44" y="6" width="12" height="16" rx="2" transform="rotate(0 50 50)"/><rect x="44" y="6" width="12" height="16" rx="2" transform="rotate(45 50 50)"/><rect x="44" y="6" width="12" height="16" rx="2" transform="rotate(90 50 50)"/><rect x="44" y="6" width="12" height="16" rx="2" transform="rotate(135 50 50)"/><rect x="44" y="6" width="12" height="16" rx="2" transform="rotate(180 50 50)"/><rect x="44" y="6" width="12" height="16" rx="2" transform="rotate(225 50 50)"/><rect x="44" y="6" width="12" height="16" rx="2" transform="rotate(270 50 50)"/><rect x="44" y="6" width="12" height="16" rx="2" transform="rotate(315 50 50)"/>
    <circle cx="50" cy="50" r="26"/>
  </g>
  <circle cx="50" cy="50" r="12" fill="#1E3F60"/>
</svg>